name rise49.8558peak67.6521fall70.3087.mot
datacolumns 19
datarows 33
range 2.33332100000000 2.38665600000000
endheader
time	ground_force1_vx	ground_force1_vy	ground_force1_vz	ground_force1_px	ground_force1_py	ground_force1_pz	ground_force2_vx	ground_force2_vy	ground_force2_vz	ground_force2_px	ground_force2_py	ground_force2_pz	ground_torque1_x	ground_torque1_y	ground_torque1_z	ground_torque2_x	ground_torque2_y	ground_torque2_z	
2.33332100000000	3.11226700000000	707.95378000000005	44.22205200000000	0.22304600000000	0.00000000000000	0.09828100000000	0.00000000000000	0.00000000000000	0.00000000000000	0.00000000000000	0.00000000000000	0.00000000000000	0.00000000000000	18.51218700000000	0.00000000000000	0.00000000000000	0.00000000000000	0.00000000000000	
2.33499400000000	2.85567800000000	708.55652799999996	44.37195200000000	0.22247700000000	0.00000000000000	0.09828100000000	0.00000000000000	0.00000000000000	0.00000000000000	0.00000000000000	0.00000000000000	0.00000000000000	0.00000000000000	18.58769700000000	0.00000000000000	0.00000000000000	0.00000000000000	0.00000000000000	
2.33665600000000	2.58797500000000	709.17985799999997	44.52382800000000	0.22187800000000	0.00000000000000	0.09828100000000	0.00000000000000	0.00000000000000	0.00000000000000	0.00000000000000	0.00000000000000	0.00000000000000	0.00000000000000	18.66533800000000	0.00000000000000	0.00000000000000	0.00000000000000	0.00000000000000	
2.33832000000000	2.30863700000000	709.82190900000001	44.67729300000000	0.22124900000000	0.00000000000000	0.09828200000000	0.00000000000000	0.00000000000000	0.00000000000000	0.00000000000000	0.00000000000000	0.00000000000000	0.00000000000000	18.74492900000000	0.00000000000000	0.00000000000000	0.00000000000000	0.00000000000000	
2.33999400000000	2.01719400000000	710.48087299999997	44.83197400000000	0.22058700000000	0.00000000000000	0.09828500000000	0.00000000000000	0.00000000000000	0.00000000000000	0.00000000000000	0.00000000000000	0.00000000000000	0.00000000000000	18.82629600000000	0.00000000000000	0.00000000000000	0.00000000000000	0.00000000000000	
2.34166000000000	1.71323200000000	711.15499699999998	44.98751600000000	0.21989300000000	0.00000000000000	0.09828900000000	0.00000000000000	0.00000000000000	0.00000000000000	0.00000000000000	0.00000000000000	0.00000000000000	0.00000000000000	18.90927600000000	0.00000000000000	0.00000000000000	0.00000000000000	0.00000000000000	
2.34332400000000	1.39638800000000	711.84259199999997	45.14358400000000	0.21916600000000	0.00000000000000	0.09829300000000	0.00000000000000	0.00000000000000	0.00000000000000	0.00000000000000	0.00000000000000	0.00000000000000	0.00000000000000	18.99371900000000	0.00000000000000	0.00000000000000	0.00000000000000	0.00000000000000	
2.34498900000000	1.06635200000000	712.54203900000005	45.29986100000000	0.21840400000000	0.00000000000000	0.09830000000000	0.00000000000000	0.00000000000000	0.00000000000000	0.00000000000000	0.00000000000000	0.00000000000000	0.00000000000000	19.07948200000000	0.00000000000000	0.00000000000000	0.00000000000000	0.00000000000000	
2.34667800000000	0.72286900000000	713.25179800000001	45.45604900000000	0.21760900000000	0.00000000000000	0.09830700000000	0.00000000000000	0.00000000000000	0.00000000000000	0.00000000000000	0.00000000000000	0.00000000000000	0.00000000000000	19.16643700000000	0.00000000000000	0.00000000000000	0.00000000000000	0.00000000000000	
2.34833600000000	0.36573700000000	713.97041200000001	45.61187100000000	0.21677800000000	0.00000000000000	0.09831600000000	0.00000000000000	0.00000000000000	0.00000000000000	0.00000000000000	0.00000000000000	0.00000000000000	0.00000000000000	19.25446600000000	0.00000000000000	0.00000000000000	0.00000000000000	0.00000000000000	
2.34999000000000	-0.00519600000000	714.69650999999999	45.76706900000000	0.21591400000000	0.00000000000000	0.09832600000000	0.00000000000000	0.00000000000000	0.00000000000000	0.00000000000000	0.00000000000000	0.00000000000000	0.00000000000000	19.34346200000000	0.00000000000000	0.00000000000000	0.00000000000000	0.00000000000000	
2.35165400000000	-0.39002800000000	715.42882199999997	45.92140400000000	0.21501600000000	0.00000000000000	0.09833700000000	0.00000000000000	0.00000000000000	0.00000000000000	0.00000000000000	0.00000000000000	0.00000000000000	0.00000000000000	19.43333300000000	0.00000000000000	0.00000000000000	0.00000000000000	0.00000000000000	
2.35332700000000	-0.78880800000000	716.16617299999996	46.07466100000000	0.21408600000000	0.00000000000000	0.09834900000000	0.00000000000000	0.00000000000000	0.00000000000000	0.00000000000000	0.00000000000000	0.00000000000000	0.00000000000000	19.52399400000000	0.00000000000000	0.00000000000000	0.00000000000000	0.00000000000000	
2.35499200000000	-1.20153900000000	716.90749400000004	46.22664200000000	0.21312300000000	0.00000000000000	0.09836200000000	0.00000000000000	0.00000000000000	0.00000000000000	0.00000000000000	0.00000000000000	0.00000000000000	0.00000000000000	19.61537500000000	0.00000000000000	0.00000000000000	0.00000000000000	0.00000000000000	
2.35665500000000	-1.62817500000000	717.65182500000003	46.37717100000000	0.21213000000000	0.00000000000000	0.09837700000000	0.00000000000000	0.00000000000000	0.00000000000000	0.00000000000000	0.00000000000000	0.00000000000000	0.00000000000000	19.70741600000000	0.00000000000000	0.00000000000000	0.00000000000000	0.00000000000000	
2.35833100000000	-2.06862500000000	718.39832100000001	46.52609400000000	0.21110700000000	0.00000000000000	0.09839300000000	0.00000000000000	0.00000000000000	0.00000000000000	0.00000000000000	0.00000000000000	0.00000000000000	0.00000000000000	19.80007000000000	0.00000000000000	0.00000000000000	0.00000000000000	0.00000000000000	
2.35999500000000	-2.52275800000000	719.14624800000001	46.67327600000000	0.21005600000000	0.00000000000000	0.09840900000000	0.00000000000000	0.00000000000000	0.00000000000000	0.00000000000000	0.00000000000000	0.00000000000000	0.00000000000000	19.89329700000000	0.00000000000000	0.00000000000000	0.00000000000000	0.00000000000000	
2.36167000000000	-2.99039900000000	719.89499499999999	46.81860300000000	0.20897900000000	0.00000000000000	0.09842700000000	0.00000000000000	0.00000000000000	0.00000000000000	0.00000000000000	0.00000000000000	0.00000000000000	0.00000000000000	19.98707200000000	0.00000000000000	0.00000000000000	0.00000000000000	0.00000000000000	
2.36332600000000	-3.47134000000000	720.64407000000006	46.96198300000000	0.20787700000000	0.00000000000000	0.09844500000000	0.00000000000000	0.00000000000000	0.00000000000000	0.00000000000000	0.00000000000000	0.00000000000000	0.00000000000000	20.08137700000000	0.00000000000000	0.00000000000000	0.00000000000000	0.00000000000000	
2.36498800000000	-3.96533300000000	721.39310200000000	47.10334400000000	0.20675300000000	0.00000000000000	0.09846400000000	0.00000000000000	0.00000000000000	0.00000000000000	0.00000000000000	0.00000000000000	0.00000000000000	0.00000000000000	20.17620500000000	0.00000000000000	0.00000000000000	0.00000000000000	0.00000000000000	
2.36667300000000	-4.47210000000000	722.14184799999998	47.24263300000000	0.20560900000000	0.00000000000000	0.09848400000000	0.00000000000000	0.00000000000000	0.00000000000000	0.00000000000000	0.00000000000000	0.00000000000000	0.00000000000000	20.27155700000000	0.00000000000000	0.00000000000000	0.00000000000000	0.00000000000000	
2.36832300000000	-4.99133400000000	722.89018499999997	47.37981900000000	0.20444600000000	0.00000000000000	0.09850400000000	0.00000000000000	0.00000000000000	0.00000000000000	0.00000000000000	0.00000000000000	0.00000000000000	0.00000000000000	20.36744300000000	0.00000000000000	0.00000000000000	0.00000000000000	0.00000000000000	
2.36998700000000	-5.52269900000000	723.63811499999997	47.51489100000000	0.20326800000000	0.00000000000000	0.09852500000000	0.00000000000000	0.00000000000000	0.00000000000000	0.00000000000000	0.00000000000000	0.00000000000000	0.00000000000000	20.46388100000000	0.00000000000000	0.00000000000000	0.00000000000000	0.00000000000000	
2.37165600000000	-6.06583700000000	724.38576399999999	47.64785600000000	0.20207600000000	0.00000000000000	0.09854500000000	0.00000000000000	0.00000000000000	0.00000000000000	0.00000000000000	0.00000000000000	0.00000000000000	0.00000000000000	20.56089400000000	0.00000000000000	0.00000000000000	0.00000000000000	0.00000000000000	
2.37334300000000	-6.62036800000000	725.13338199999998	47.77874200000000	0.20087200000000	0.00000000000000	0.09856600000000	0.00000000000000	0.00000000000000	0.00000000000000	0.00000000000000	0.00000000000000	0.00000000000000	0.00000000000000	20.65851400000000	0.00000000000000	0.00000000000000	0.00000000000000	0.00000000000000	
2.37499000000000	-7.18589200000000	725.88133400000004	47.90759500000000	0.19966000000000	0.00000000000000	0.09858700000000	0.00000000000000	0.00000000000000	0.00000000000000	0.00000000000000	0.00000000000000	0.00000000000000	0.00000000000000	20.75677500000000	0.00000000000000	0.00000000000000	0.00000000000000	0.00000000000000	
2.37665300000000	-7.76199800000000	726.63010899999995	48.03448100000000	0.19844200000000	0.00000000000000	0.09860800000000	0.00000000000000	0.00000000000000	0.00000000000000	0.00000000000000	0.00000000000000	0.00000000000000	0.00000000000000	20.85571800000000	0.00000000000000	0.00000000000000	0.00000000000000	0.00000000000000	
2.37833000000000	-8.34825800000000	727.38030600000002	48.15948300000000	0.19721900000000	0.00000000000000	0.09862900000000	0.00000000000000	0.00000000000000	0.00000000000000	0.00000000000000	0.00000000000000	0.00000000000000	0.00000000000000	20.95538800000000	0.00000000000000	0.00000000000000	0.00000000000000	0.00000000000000	
2.37999400000000	-8.94423800000000	728.13263700000005	48.28270100000000	0.19599600000000	0.00000000000000	0.09864900000000	0.00000000000000	0.00000000000000	0.00000000000000	0.00000000000000	0.00000000000000	0.00000000000000	0.00000000000000	21.05582900000000	0.00000000000000	0.00000000000000	0.00000000000000	0.00000000000000	
2.38165400000000	-9.54949500000000	728.88792100000001	48.40425300000000	0.19477300000000	0.00000000000000	0.09866900000000	0.00000000000000	0.00000000000000	0.00000000000000	0.00000000000000	0.00000000000000	0.00000000000000	0.00000000000000	21.15709200000000	0.00000000000000	0.00000000000000	0.00000000000000	0.00000000000000	
2.38332700000000	-10.16358200000000	729.64707799999996	48.52427500000000	0.19355300000000	0.00000000000000	0.09868800000000	0.00000000000000	0.00000000000000	0.00000000000000	0.00000000000000	0.00000000000000	0.00000000000000	0.00000000000000	21.25922500000000	0.00000000000000	0.00000000000000	0.00000000000000	0.00000000000000	
2.38499300000000	-10.78605000000000	730.41112299999998	48.64291600000000	0.19233800000000	0.00000000000000	0.09870700000000	0.00000000000000	0.00000000000000	0.00000000000000	0.00000000000000	0.00000000000000	0.00000000000000	0.00000000000000	21.36227700000000	0.00000000000000	0.00000000000000	0.00000000000000	0.00000000000000	
2.38665600000000	-11.41645200000000	731.18116399999997	48.76034300000000	0.19113100000000	0.00000000000000	0.09872500000000	0.00000000000000	0.00000000000000	0.00000000000000	0.00000000000000	0.00000000000000	0.00000000000000	0.00000000000000	21.46629700000000	0.00000000000000	0.00000000000000	0.00000000000000	0.00000000000000	
